<svg xmlns="http://www.w3.org/2000/svg" version="1.1" xmlns:xlink="http://www.w3.org/1999/xlink" xmlns:svgjs="http://svgjs.dev/svgjs" width="1440" height="560" preserveAspectRatio="none" viewBox="0 0 1440 560"><g mask="url(&quot;#SvgjsMask1000&quot;)" fill="none"><rect width="1440" height="560" x="0" y="0" fill="#0e2a47"></rect><path d="M-57.6 339.57L-57.6 339.57" stroke="#132e65" stroke-width="1.5"></path><path d="M-57.6 339.57L-107.16 541.05" stroke="#132e65" stroke-width="1.5"></path><path d="M-57.6 339.57L101.79 502.44" stroke="#132e65" stroke-width="1.5"></path><path d="M-57.6 339.57L226.63 388.5" stroke="#132e65" stroke-width="1.5"></path><path d="M-57.6 339.57L88.47 662.66" stroke="#132e65" stroke-width="1.5"></path><path d="M-107.16 541.05L-107.16 541.05" stroke="#132e65" stroke-width="1.5"></path><path d="M-107.16 541.05L101.79 502.44" stroke="#132e65" stroke-width="1.5"></path><path d="M-107.16 541.05L88.47 662.66" stroke="#132e65" stroke-width="1.5"></path><path d="M-107.16 541.05L196.84 681.1" stroke="#132e65" stroke-width="1.5"></path><path d="M-107.16 541.05L243.5 549.65" stroke="#132e65" stroke-width="1.5"></path><path d="M-107.16 541.05L226.63 388.5" stroke="#132e65" stroke-width="1.5"></path><path d="M101.79 502.44L101.79 502.44" stroke="#132e65" stroke-width="1.5"></path><path d="M101.79 502.44L243.5 549.65" stroke="#132e65" stroke-width="1.5"></path><path d="M101.79 502.44L88.47 662.66" stroke="#132e65" stroke-width="1.5"></path><path d="M101.79 502.44L226.63 388.5" stroke="#132e65" stroke-width="1.5"></path><path d="M101.79 502.44L196.84 681.1" stroke="#132e65" stroke-width="1.5"></path><path d="M88.47 662.66L88.47 662.66" stroke="#132e65" stroke-width="1.5"></path><path d="M88.47 662.66L196.84 681.1" stroke="#132e65" stroke-width="1.5"></path><path d="M88.47 662.66L243.5 549.65" stroke="#132e65" stroke-width="1.5"></path><path d="M226.63 388.5L226.63 388.5" stroke="#132e65" stroke-width="1.5"></path><path d="M226.63 388.5L352 376.32" stroke="#132e65" stroke-width="1.5"></path><path d="M226.63 388.5L243.5 549.65" stroke="#132e65" stroke-width="1.5"></path><path d="M226.63 388.5L383.89 523.44" stroke="#132e65" stroke-width="1.5"></path><path d="M243.5 549.65L243.5 549.65" stroke="#132e65" stroke-width="1.5"></path><path d="M243.5 549.65L196.84 681.1" stroke="#132e65" stroke-width="1.5"></path><path d="M243.5 549.65L383.89 523.44" stroke="#132e65" stroke-width="1.5"></path><path d="M196.84 681.1L196.84 681.1" stroke="#132e65" stroke-width="1.5"></path><path d="M196.84 681.1L379.89 657.43" stroke="#132e65" stroke-width="1.5"></path><path d="M352 376.32L352 376.32" stroke="#132e65" stroke-width="1.5"></path><path d="M352 376.32L383.89 523.44" stroke="#132e65" stroke-width="1.5"></path><path d="M383.89 523.44L383.89 523.44" stroke="#132e65" stroke-width="1.5"></path><path d="M383.89 523.44L511.19 520.89" stroke="#132e65" stroke-width="1.5"></path><path d="M383.89 523.44L379.89 657.43" stroke="#132e65" stroke-width="1.5"></path><path d="M379.89 657.43L379.89 657.43" stroke="#132e65" stroke-width="1.5"></path><path d="M379.89 657.43L550.3 648.23" stroke="#132e65" stroke-width="1.5"></path><path d="M379.89 657.43L243.5 549.65" stroke="#132e65" stroke-width="1.5"></path><path d="M379.89 657.43L511.19 520.89" stroke="#132e65" stroke-width="1.5"></path><path d="M552.8 378.5L552.8 378.5" stroke="#132e65" stroke-width="1.5"></path><path d="M552.8 378.5L657.43 395.66" stroke="#132e65" stroke-width="1.5"></path><path d="M552.8 378.5L511.19 520.89" stroke="#132e65" stroke-width="1.5"></path><path d="M552.8 378.5L352 376.32" stroke="#132e65" stroke-width="1.5"></path><path d="M552.8 378.5L689.92 544.13" stroke="#132e65" stroke-width="1.5"></path><path d="M552.8 378.5L383.89 523.44" stroke="#132e65" stroke-width="1.5"></path><path d="M552.8 378.5L550.3 648.23" stroke="#132e65" stroke-width="1.5"></path><path d="M511.19 520.89L511.19 520.89" stroke="#132e65" stroke-width="1.5"></path><path d="M511.19 520.89L550.3 648.23" stroke="#132e65" stroke-width="1.5"></path><path d="M511.19 520.89L689.92 544.13" stroke="#132e65" stroke-width="1.5"></path><path d="M550.3 648.23L550.3 648.23" stroke="#132e65" stroke-width="1.5"></path><path d="M550.3 648.23L638.84 680.99" stroke="#132e65" stroke-width="1.5"></path><path d="M550.3 648.23L689.92 544.13" stroke="#132e65" stroke-width="1.5"></path><path d="M550.3 648.23L383.89 523.44" stroke="#132e65" stroke-width="1.5"></path><path d="M550.3 648.23L815.87 672.91" stroke="#132e65" stroke-width="1.5"></path><path d="M657.43 395.66L657.43 395.66" stroke="#132e65" stroke-width="1.5"></path><path d="M689.92 544.13L689.92 544.13" stroke="#132e65" stroke-width="1.5"></path><path d="M689.92 544.13L820.48 525.27" stroke="#132e65" stroke-width="1.5"></path><path d="M689.92 544.13L638.84 680.99" stroke="#132e65" stroke-width="1.5"></path><path d="M689.92 544.13L657.43 395.66" stroke="#132e65" stroke-width="1.5"></path><path d="M638.84 680.99L638.84 680.99" stroke="#132e65" stroke-width="1.5"></path><path d="M839.36 219.88L839.36 219.88" stroke="#132e65" stroke-width="1.5"></path><path d="M839.36 219.88L972.81 231.08" stroke="#132e65" stroke-width="1.5"></path><path d="M839.36 219.88L941.34 109.79" stroke="#132e65" stroke-width="1.5"></path><path d="M853.25 395.12L853.25 395.12" stroke="#132e65" stroke-width="1.5"></path><path d="M853.25 395.12L820.48 525.27" stroke="#132e65" stroke-width="1.5"></path><path d="M820.48 525.27L820.48 525.27" stroke="#132e65" stroke-width="1.5"></path><path d="M820.48 525.27L947.75 558.57" stroke="#132e65" stroke-width="1.5"></path><path d="M820.48 525.27L815.87 672.91" stroke="#132e65" stroke-width="1.5"></path><path d="M815.87 672.91L815.87 672.91" stroke="#132e65" stroke-width="1.5"></path><path d="M815.87 672.91L938.04 661.43" stroke="#132e65" stroke-width="1.5"></path><path d="M815.87 672.91L947.75 558.57" stroke="#132e65" stroke-width="1.5"></path><path d="M943.02 -87.66L943.02 -87.66" stroke="#132e65" stroke-width="1.5"></path><path d="M943.02 -87.66L941.34 109.79" stroke="#132e65" stroke-width="1.5"></path><path d="M943.02 -87.66L1145.04 -97.33" stroke="#132e65" stroke-width="1.5"></path><path d="M943.02 -87.66L1093.72 106.34" stroke="#132e65" stroke-width="1.5"></path><path d="M943.02 -87.66L1252.7 -82" stroke="#132e65" stroke-width="1.5"></path><path d="M941.34 109.79L941.34 109.79" stroke="#132e65" stroke-width="1.5"></path><path d="M941.34 109.79L972.81 231.08" stroke="#132e65" stroke-width="1.5"></path><path d="M941.34 109.79L1093.72 106.34" stroke="#132e65" stroke-width="1.5"></path><path d="M972.81 231.08L972.81 231.08" stroke="#132e65" stroke-width="1.5"></path><path d="M972.81 231.08L1117.57 257.67" stroke="#132e65" stroke-width="1.5"></path><path d="M999 381.22L999 381.22" stroke="#132e65" stroke-width="1.5"></path><path d="M999 381.22L1102.12 384.77" stroke="#132e65" stroke-width="1.5"></path><path d="M999 381.22L853.25 395.12" stroke="#132e65" stroke-width="1.5"></path><path d="M947.75 558.57L947.75 558.57" stroke="#132e65" stroke-width="1.5"></path><path d="M947.75 558.57L938.04 661.43" stroke="#132e65" stroke-width="1.5"></path><path d="M947.75 558.57L999 381.22" stroke="#132e65" stroke-width="1.5"></path><path d="M938.04 661.43L938.04 661.43" stroke="#132e65" stroke-width="1.5"></path><path d="M938.04 661.43L820.48 525.27" stroke="#132e65" stroke-width="1.5"></path><path d="M1145.04 -97.33L1145.04 -97.33" stroke="#132e65" stroke-width="1.5"></path><path d="M1145.04 -97.33L1252.7 -82" stroke="#132e65" stroke-width="1.5"></path><path d="M1093.72 106.34L1093.72 106.34" stroke="#132e65" stroke-width="1.5"></path><path d="M1093.72 106.34L1117.57 257.67" stroke="#132e65" stroke-width="1.5"></path><path d="M1093.72 106.34L972.81 231.08" stroke="#132e65" stroke-width="1.5"></path><path d="M1093.72 106.34L1269.87 102.83" stroke="#132e65" stroke-width="1.5"></path><path d="M1093.72 106.34L1145.04 -97.33" stroke="#132e65" stroke-width="1.5"></path><path d="M1117.57 257.67L1117.57 257.67" stroke="#132e65" stroke-width="1.5"></path><path d="M1117.57 257.67L1102.12 384.77" stroke="#132e65" stroke-width="1.5"></path><path d="M1102.12 384.77L1102.12 384.77" stroke="#132e65" stroke-width="1.5"></path><path d="M1149.19 554.03L1149.19 554.03" stroke="#132e65" stroke-width="1.5"></path><path d="M1149.19 554.03L1126.48 642.36" stroke="#132e65" stroke-width="1.5"></path><path d="M1149.19 554.03L1262.36 537.17" stroke="#132e65" stroke-width="1.5"></path><path d="M1149.19 554.03L1284.36 642.92" stroke="#132e65" stroke-width="1.5"></path><path d="M1149.19 554.03L1102.12 384.77" stroke="#132e65" stroke-width="1.5"></path><path d="M1149.19 554.03L1237.69 377.43" stroke="#132e65" stroke-width="1.5"></path><path d="M1126.48 642.36L1126.48 642.36" stroke="#132e65" stroke-width="1.5"></path><path d="M1126.48 642.36L1284.36 642.92" stroke="#132e65" stroke-width="1.5"></path><path d="M1252.7 -82L1252.7 -82" stroke="#132e65" stroke-width="1.5"></path><path d="M1252.7 -82L1399.44 -96.33" stroke="#132e65" stroke-width="1.5"></path><path d="M1252.7 -82L1269.87 102.83" stroke="#132e65" stroke-width="1.5"></path><path d="M1252.7 -82L1403.7 40.3" stroke="#132e65" stroke-width="1.5"></path><path d="M1252.7 -82L1093.72 106.34" stroke="#132e65" stroke-width="1.5"></path><path d="M1269.87 102.83L1269.87 102.83" stroke="#132e65" stroke-width="1.5"></path><path d="M1269.87 102.83L1286.9 238.34" stroke="#132e65" stroke-width="1.5"></path><path d="M1269.87 102.83L1403.7 40.3" stroke="#132e65" stroke-width="1.5"></path><path d="M1286.9 238.34L1286.9 238.34" stroke="#132e65" stroke-width="1.5"></path><path d="M1286.9 238.34L1418.62 237.58" stroke="#132e65" stroke-width="1.5"></path><path d="M1286.9 238.34L1237.69 377.43" stroke="#132e65" stroke-width="1.5"></path><path d="M1286.9 238.34L1117.57 257.67" stroke="#132e65" stroke-width="1.5"></path><path d="M1237.69 377.43L1237.69 377.43" stroke="#132e65" stroke-width="1.5"></path><path d="M1237.69 377.43L1102.12 384.77" stroke="#132e65" stroke-width="1.5"></path><path d="M1237.69 377.43L1262.36 537.17" stroke="#132e65" stroke-width="1.5"></path><path d="M1262.36 537.17L1262.36 537.17" stroke="#132e65" stroke-width="1.5"></path><path d="M1262.36 537.17L1284.36 642.92" stroke="#132e65" stroke-width="1.5"></path><path d="M1284.36 642.92L1284.36 642.92" stroke="#132e65" stroke-width="1.5"></path><path d="M1284.36 642.92L1410.09 655.5" stroke="#132e65" stroke-width="1.5"></path><path d="M1284.36 642.92L1437.9 530.97" stroke="#132e65" stroke-width="1.5"></path><path d="M1399.44 -96.33L1399.44 -96.33" stroke="#132e65" stroke-width="1.5"></path><path d="M1399.44 -96.33L1403.7 40.3" stroke="#132e65" stroke-width="1.5"></path><path d="M1399.44 -96.33L1567.08 -64.04" stroke="#132e65" stroke-width="1.5"></path><path d="M1399.44 -96.33L1269.87 102.83" stroke="#132e65" stroke-width="1.5"></path><path d="M1403.7 40.3L1403.7 40.3" stroke="#132e65" stroke-width="1.5"></path><path d="M1403.7 40.3L1590.63 84.89" stroke="#132e65" stroke-width="1.5"></path><path d="M1403.7 40.3L1567.08 -64.04" stroke="#132e65" stroke-width="1.5"></path><path d="M1418.62 237.58L1418.62 237.58" stroke="#132e65" stroke-width="1.5"></path><path d="M1418.62 237.58L1456.69 362.65" stroke="#132e65" stroke-width="1.5"></path><path d="M1456.69 362.65L1456.69 362.65" stroke="#132e65" stroke-width="1.5"></path><path d="M1456.69 362.65L1555.11 363.36" stroke="#132e65" stroke-width="1.5"></path><path d="M1437.9 530.97L1437.9 530.97" stroke="#132e65" stroke-width="1.5"></path><path d="M1437.9 530.97L1545.55 554.39" stroke="#132e65" stroke-width="1.5"></path><path d="M1437.9 530.97L1410.09 655.5" stroke="#132e65" stroke-width="1.5"></path><path d="M1437.9 530.97L1456.69 362.65" stroke="#132e65" stroke-width="1.5"></path><path d="M1410.09 655.5L1410.09 655.5" stroke="#132e65" stroke-width="1.5"></path><path d="M1410.09 655.5L1545.55 554.39" stroke="#132e65" stroke-width="1.5"></path><path d="M1410.09 655.5L1578.1 693.32" stroke="#132e65" stroke-width="1.5"></path><path d="M1410.09 655.5L1262.36 537.17" stroke="#132e65" stroke-width="1.5"></path><path d="M1567.08 -64.04L1567.08 -64.04" stroke="#132e65" stroke-width="1.5"></path><path d="M1567.08 -64.04L1590.63 84.89" stroke="#132e65" stroke-width="1.5"></path><path d="M1567.08 -64.04L1603.4 240.13" stroke="#132e65" stroke-width="1.5"></path><path d="M1567.08 -64.04L1252.7 -82" stroke="#132e65" stroke-width="1.5"></path><path d="M1567.08 -64.04L1418.62 237.58" stroke="#132e65" stroke-width="1.5"></path><path d="M1590.63 84.89L1590.63 84.89" stroke="#132e65" stroke-width="1.5"></path><path d="M1590.63 84.89L1603.4 240.13" stroke="#132e65" stroke-width="1.5"></path><path d="M1590.63 84.89L1418.62 237.58" stroke="#132e65" stroke-width="1.5"></path><path d="M1590.63 84.89L1399.44 -96.33" stroke="#132e65" stroke-width="1.5"></path><path d="M1590.63 84.89L1555.11 363.36" stroke="#132e65" stroke-width="1.5"></path><path d="M1603.4 240.13L1603.4 240.13" stroke="#132e65" stroke-width="1.5"></path><path d="M1603.4 240.13L1555.11 363.36" stroke="#132e65" stroke-width="1.5"></path><path d="M1603.4 240.13L1418.62 237.58" stroke="#132e65" stroke-width="1.5"></path><path d="M1603.4 240.13L1456.69 362.65" stroke="#132e65" stroke-width="1.5"></path><path d="M1603.4 240.13L1403.7 40.3" stroke="#132e65" stroke-width="1.5"></path><path d="M1555.11 363.36L1555.11 363.36" stroke="#132e65" stroke-width="1.5"></path><path d="M1545.55 554.39L1545.55 554.39" stroke="#132e65" stroke-width="1.5"></path><path d="M1545.55 554.39L1578.1 693.32" stroke="#132e65" stroke-width="1.5"></path><path d="M1578.1 693.32L1578.1 693.32" stroke="#132e65" stroke-width="1.5"></path><path d="M1578.1 693.32L1437.9 530.97" stroke="#132e65" stroke-width="1.5"></path><path d="M1578.1 693.32L1284.36 642.92" stroke="#132e65" stroke-width="1.5"></path><path d="M1578.1 693.32L1555.11 363.36" stroke="#132e65" stroke-width="1.5"></path><path d="M1578.1 693.32L1262.36 537.17" stroke="#132e65" stroke-width="1.5"></path><circle r="5" cx="-57.6" cy="339.57" fill="#132e65"></circle><circle r="5" cx="-107.16" cy="541.05" fill="#132e65"></circle><circle r="5" cx="101.79" cy="502.44" fill="#132e65"></circle><circle r="5" cx="88.47" cy="662.66" fill="#132e65"></circle><circle r="5" cx="226.63" cy="388.5" fill="#132e65"></circle><circle r="5" cx="243.5" cy="549.65" fill="#132e65"></circle><circle r="5" cx="196.84" cy="681.1" fill="#132e65"></circle><circle r="5" cx="352" cy="376.32" fill="#132e65"></circle><circle r="5" cx="383.89" cy="523.44" fill="#132e65"></circle><circle r="5" cx="379.89" cy="657.43" fill="#132e65"></circle><circle r="5" cx="552.8" cy="378.5" fill="#132e65"></circle><circle r="5" cx="511.19" cy="520.89" fill="#132e65"></circle><circle r="5" cx="550.3" cy="648.23" fill="#132e65"></circle><circle r="5" cx="657.43" cy="395.66" fill="#132e65"></circle><circle r="5" cx="689.92" cy="544.13" fill="#132e65"></circle><circle r="5" cx="638.84" cy="680.99" fill="#132e65"></circle><circle r="5" cx="839.36" cy="219.88" fill="#132e65"></circle><circle r="5" cx="853.25" cy="395.12" fill="#132e65"></circle><circle r="5" cx="820.48" cy="525.27" fill="#132e65"></circle><circle r="5" cx="815.87" cy="672.91" fill="#132e65"></circle><circle r="5" cx="943.02" cy="-87.66" fill="#132e65"></circle><circle r="5" cx="941.34" cy="109.79" fill="#132e65"></circle><circle r="5" cx="972.81" cy="231.08" fill="#132e65"></circle><circle r="5" cx="999" cy="381.22" fill="#132e65"></circle><circle r="5" cx="947.75" cy="558.57" fill="#132e65"></circle><circle r="5" cx="938.04" cy="661.43" fill="#132e65"></circle><circle r="5" cx="1145.04" cy="-97.33" fill="#132e65"></circle><circle r="5" cx="1093.72" cy="106.34" fill="#132e65"></circle><circle r="5" cx="1117.57" cy="257.67" fill="#132e65"></circle><circle r="5" cx="1102.12" cy="384.77" fill="#132e65"></circle><circle r="5" cx="1149.19" cy="554.03" fill="#132e65"></circle><circle r="5" cx="1126.48" cy="642.36" fill="#132e65"></circle><circle r="5" cx="1252.7" cy="-82" fill="#132e65"></circle><circle r="5" cx="1269.87" cy="102.83" fill="#132e65"></circle><circle r="5" cx="1286.9" cy="238.34" fill="#132e65"></circle><circle r="5" cx="1237.69" cy="377.43" fill="#132e65"></circle><circle r="5" cx="1262.36" cy="537.17" fill="#132e65"></circle><circle r="5" cx="1284.36" cy="642.92" fill="#132e65"></circle><circle r="5" cx="1399.44" cy="-96.33" fill="#132e65"></circle><circle r="5" cx="1403.7" cy="40.3" fill="#132e65"></circle><circle r="5" cx="1418.62" cy="237.58" fill="#132e65"></circle><circle r="5" cx="1456.69" cy="362.65" fill="#132e65"></circle><circle r="5" cx="1437.9" cy="530.97" fill="#132e65"></circle><circle r="5" cx="1410.09" cy="655.5" fill="#132e65"></circle><circle r="5" cx="1567.08" cy="-64.04" fill="#132e65"></circle><circle r="5" cx="1590.63" cy="84.89" fill="#132e65"></circle><circle r="5" cx="1603.4" cy="240.13" fill="#132e65"></circle><circle r="5" cx="1555.11" cy="363.36" fill="#132e65"></circle><circle r="5" cx="1545.55" cy="554.39" fill="#132e65"></circle><circle r="5" cx="1578.1" cy="693.32" fill="#132e65"></circle><path d="M-69.22 488.59L-69.22 488.59" stroke="hsl(228.5, 77.2%, 51.5%)" stroke-width="1.5"></path><path d="M-69.22 488.59L-102.37 644.09" stroke="hsl(228.5, 77.2%, 51.5%)" stroke-width="1.5"></path><path d="M-69.22 488.59L93.12 687.67" stroke="hsl(228.5, 77.2%, 51.5%)" stroke-width="1.5"></path><path d="M-69.22 488.59L209.47 493.12" stroke="hsl(228.5, 77.2%, 51.5%)" stroke-width="1.5"></path><path d="M209.47 493.12L209.47 493.12" stroke="hsl(228.5, 77.2%, 51.5%)" stroke-width="1.5"></path><path d="M209.47 493.12L354.18 520.44" stroke="hsl(228.5, 77.2%, 51.5%)" stroke-width="1.5"></path><path d="M209.47 493.12L191.76 691.37" stroke="hsl(228.5, 77.2%, 51.5%)" stroke-width="1.5"></path><path d="M1145.63 511.88L1145.63 511.88" stroke="hsl(228.5, 77.2%, 51.5%)" stroke-width="1.5"></path><path d="M1145.63 511.88L1004.41 557.2" stroke="hsl(228.5, 77.2%, 51.5%)" stroke-width="1.5"></path><path d="M1145.63 511.88L1305.33 511.51" stroke="hsl(228.5, 77.2%, 51.5%)" stroke-width="1.5"></path><path d="M1255.02 256.43L1255.02 256.43" stroke="hsl(228.5, 77.2%, 51.5%)" stroke-width="1.5"></path><path d="M1255.02 256.43L1138.25 254.97" stroke="hsl(228.5, 77.2%, 51.5%)" stroke-width="1.5"></path><path d="M1255.02 256.43L1306.73 410.59" stroke="hsl(228.5, 77.2%, 51.5%)" stroke-width="1.5"></path><path d="M1306.73 410.59L1306.73 410.59" stroke="hsl(228.5, 77.2%, 51.5%)" stroke-width="1.5"></path><path d="M1306.73 410.59L1305.33 511.51" stroke="hsl(228.5, 77.2%, 51.5%)" stroke-width="1.5"></path><path d="M-102.37 644.09L-102.37 644.09" stroke="hsl(228.5, 77.2%, 51.5%)" stroke-width="1.5"></path><path d="M-102.37 644.09L93.12 687.67" stroke="hsl(228.5, 77.2%, 51.5%)" stroke-width="1.5"></path><path d="M-102.37 644.09L191.76 691.37" stroke="hsl(228.5, 77.2%, 51.5%)" stroke-width="1.5"></path><path d="M-102.37 644.09L209.47 493.12" stroke="hsl(228.5, 77.2%, 51.5%)" stroke-width="1.5"></path><path d="M93.12 687.67L93.12 687.67" stroke="hsl(228.5, 77.2%, 51.5%)" stroke-width="1.5"></path><path d="M93.12 687.67L191.76 691.37" stroke="hsl(228.5, 77.2%, 51.5%)" stroke-width="1.5"></path><path d="M191.76 691.37L191.76 691.37" stroke="hsl(228.5, 77.2%, 51.5%)" stroke-width="1.5"></path><path d="M191.76 691.37L372.24 689.07" stroke="hsl(228.5, 77.2%, 51.5%)" stroke-width="1.5"></path><path d="M354.18 520.44L354.18 520.44" stroke="hsl(228.5, 77.2%, 51.5%)" stroke-width="1.5"></path><path d="M354.18 520.44L502.65 516.92" stroke="hsl(228.5, 77.2%, 51.5%)" stroke-width="1.5"></path><path d="M354.18 520.44L372.24 689.07" stroke="hsl(228.5, 77.2%, 51.5%)" stroke-width="1.5"></path><path d="M354.18 520.44L536.99 652.56" stroke="hsl(228.5, 77.2%, 51.5%)" stroke-width="1.5"></path><path d="M354.18 520.44L191.76 691.37" stroke="hsl(228.5, 77.2%, 51.5%)" stroke-width="1.5"></path><path d="M372.24 689.07L372.24 689.07" stroke="hsl(228.5, 77.2%, 51.5%)" stroke-width="1.5"></path><path d="M372.24 689.07L536.99 652.56" stroke="hsl(228.5, 77.2%, 51.5%)" stroke-width="1.5"></path><path d="M502.65 516.92L502.65 516.92" stroke="hsl(228.5, 77.2%, 51.5%)" stroke-width="1.5"></path><path d="M502.65 516.92L536.99 652.56" stroke="hsl(228.5, 77.2%, 51.5%)" stroke-width="1.5"></path><path d="M536.99 652.56L536.99 652.56" stroke="hsl(228.5, 77.2%, 51.5%)" stroke-width="1.5"></path><path d="M536.99 652.56L666.57 659.74" stroke="hsl(228.5, 77.2%, 51.5%)" stroke-width="1.5"></path><path d="M644.71 371.29L644.71 371.29" stroke="hsl(228.5, 77.2%, 51.5%)" stroke-width="1.5"></path><path d="M644.71 371.29L711.38 514.27" stroke="hsl(228.5, 77.2%, 51.5%)" stroke-width="1.5"></path><path d="M644.71 371.29L502.65 516.92" stroke="hsl(228.5, 77.2%, 51.5%)" stroke-width="1.5"></path><path d="M644.71 371.29L846.91 405.52" stroke="hsl(228.5, 77.2%, 51.5%)" stroke-width="1.5"></path><path d="M711.38 514.27L711.38 514.27" stroke="hsl(228.5, 77.2%, 51.5%)" stroke-width="1.5"></path><path d="M711.38 514.27L858.83 514.13" stroke="hsl(228.5, 77.2%, 51.5%)" stroke-width="1.5"></path><path d="M711.38 514.27L666.57 659.74" stroke="hsl(228.5, 77.2%, 51.5%)" stroke-width="1.5"></path><path d="M711.38 514.27L846.91 405.52" stroke="hsl(228.5, 77.2%, 51.5%)" stroke-width="1.5"></path><path d="M666.57 659.74L666.57 659.74" stroke="hsl(228.5, 77.2%, 51.5%)" stroke-width="1.5"></path><path d="M666.57 659.74L821.34 652.7" stroke="hsl(228.5, 77.2%, 51.5%)" stroke-width="1.5"></path><path d="M846.91 405.52L846.91 405.52" stroke="hsl(228.5, 77.2%, 51.5%)" stroke-width="1.5"></path><path d="M846.91 405.52L858.83 514.13" stroke="hsl(228.5, 77.2%, 51.5%)" stroke-width="1.5"></path><path d="M846.91 405.52L949.72 342.59" stroke="hsl(228.5, 77.2%, 51.5%)" stroke-width="1.5"></path><path d="M858.83 514.13L858.83 514.13" stroke="hsl(228.5, 77.2%, 51.5%)" stroke-width="1.5"></path><path d="M858.83 514.13L821.34 652.7" stroke="hsl(228.5, 77.2%, 51.5%)" stroke-width="1.5"></path><path d="M858.83 514.13L1004.41 557.2" stroke="hsl(228.5, 77.2%, 51.5%)" stroke-width="1.5"></path><path d="M821.34 652.7L821.34 652.7" stroke="hsl(228.5, 77.2%, 51.5%)" stroke-width="1.5"></path><path d="M821.34 652.7L984.42 690.2" stroke="hsl(228.5, 77.2%, 51.5%)" stroke-width="1.5"></path><path d="M821.34 652.7L711.38 514.27" stroke="hsl(228.5, 77.2%, 51.5%)" stroke-width="1.5"></path><path d="M821.34 652.7L1004.41 557.2" stroke="hsl(228.5, 77.2%, 51.5%)" stroke-width="1.5"></path><path d="M821.34 652.7L846.91 405.52" stroke="hsl(228.5, 77.2%, 51.5%)" stroke-width="1.5"></path><path d="M949.72 342.59L949.72 342.59" stroke="hsl(228.5, 77.2%, 51.5%)" stroke-width="1.5"></path><path d="M949.72 342.59L1094.44 350.94" stroke="hsl(228.5, 77.2%, 51.5%)" stroke-width="1.5"></path><path d="M1004.41 557.2L1004.41 557.2" stroke="hsl(228.5, 77.2%, 51.5%)" stroke-width="1.5"></path><path d="M1004.41 557.2L984.42 690.2" stroke="hsl(228.5, 77.2%, 51.5%)" stroke-width="1.5"></path><path d="M984.42 690.2L984.42 690.2" stroke="hsl(228.5, 77.2%, 51.5%)" stroke-width="1.5"></path><path d="M984.42 690.2L1124.71 691.43" stroke="hsl(228.5, 77.2%, 51.5%)" stroke-width="1.5"></path><path d="M984.42 690.2L858.83 514.13" stroke="hsl(228.5, 77.2%, 51.5%)" stroke-width="1.5"></path><path d="M1153.07 77.33L1153.07 77.33" stroke="hsl(228.5, 77.2%, 51.5%)" stroke-width="1.5"></path><path d="M1153.07 77.33L1244.26 58.35" stroke="hsl(228.5, 77.2%, 51.5%)" stroke-width="1.5"></path><path d="M1153.07 77.33L1138.25 254.97" stroke="hsl(228.5, 77.2%, 51.5%)" stroke-width="1.5"></path><path d="M1153.07 77.33L1255.02 256.43" stroke="hsl(228.5, 77.2%, 51.5%)" stroke-width="1.5"></path><path d="M1153.07 77.33L1273.21 -107.19" stroke="hsl(228.5, 77.2%, 51.5%)" stroke-width="1.5"></path><path d="M1153.07 77.33L1094.44 350.94" stroke="hsl(228.5, 77.2%, 51.5%)" stroke-width="1.5"></path><path d="M1138.25 254.97L1138.25 254.97" stroke="hsl(228.5, 77.2%, 51.5%)" stroke-width="1.5"></path><path d="M1138.25 254.97L1094.44 350.94" stroke="hsl(228.5, 77.2%, 51.5%)" stroke-width="1.5"></path><path d="M1094.44 350.94L1094.44 350.94" stroke="hsl(228.5, 77.2%, 51.5%)" stroke-width="1.5"></path><path d="M1094.44 350.94L1145.63 511.88" stroke="hsl(228.5, 77.2%, 51.5%)" stroke-width="1.5"></path><path d="M1094.44 350.94L1255.02 256.43" stroke="hsl(228.5, 77.2%, 51.5%)" stroke-width="1.5"></path><path d="M1094.44 350.94L1306.73 410.59" stroke="hsl(228.5, 77.2%, 51.5%)" stroke-width="1.5"></path><path d="M1094.44 350.94L1004.41 557.2" stroke="hsl(228.5, 77.2%, 51.5%)" stroke-width="1.5"></path><path d="M1124.71 691.43L1124.71 691.43" stroke="hsl(228.5, 77.2%, 51.5%)" stroke-width="1.5"></path><path d="M1124.71 691.43L1254.79 703.96" stroke="hsl(228.5, 77.2%, 51.5%)" stroke-width="1.5"></path><path d="M1124.71 691.43L1004.41 557.2" stroke="hsl(228.5, 77.2%, 51.5%)" stroke-width="1.5"></path><path d="M1124.71 691.43L1145.63 511.88" stroke="hsl(228.5, 77.2%, 51.5%)" stroke-width="1.5"></path><path d="M1273.21 -107.19L1273.21 -107.19" stroke="hsl(228.5, 77.2%, 51.5%)" stroke-width="1.5"></path><path d="M1273.21 -107.19L1411.78 -41.93" stroke="hsl(228.5, 77.2%, 51.5%)" stroke-width="1.5"></path><path d="M1273.21 -107.19L1244.26 58.35" stroke="hsl(228.5, 77.2%, 51.5%)" stroke-width="1.5"></path><path d="M1273.21 -107.19L1461.22 81.82" stroke="hsl(228.5, 77.2%, 51.5%)" stroke-width="1.5"></path><path d="M1273.21 -107.19L1612.38 -68.58" stroke="hsl(228.5, 77.2%, 51.5%)" stroke-width="1.5"></path><path d="M1244.26 58.35L1244.26 58.35" stroke="hsl(228.5, 77.2%, 51.5%)" stroke-width="1.5"></path><path d="M1244.26 58.35L1411.78 -41.93" stroke="hsl(228.5, 77.2%, 51.5%)" stroke-width="1.5"></path><path d="M1244.26 58.35L1255.02 256.43" stroke="hsl(228.5, 77.2%, 51.5%)" stroke-width="1.5"></path><path d="M1305.33 511.51L1305.33 511.51" stroke="hsl(228.5, 77.2%, 51.5%)" stroke-width="1.5"></path><path d="M1254.79 703.96L1254.79 703.96" stroke="hsl(228.5, 77.2%, 51.5%)" stroke-width="1.5"></path><path d="M1254.79 703.96L1416.07 661.12" stroke="hsl(228.5, 77.2%, 51.5%)" stroke-width="1.5"></path><path d="M1411.78 -41.93L1411.78 -41.93" stroke="hsl(228.5, 77.2%, 51.5%)" stroke-width="1.5"></path><path d="M1411.78 -41.93L1461.22 81.82" stroke="hsl(228.5, 77.2%, 51.5%)" stroke-width="1.5"></path><path d="M1461.22 81.82L1461.22 81.82" stroke="hsl(228.5, 77.2%, 51.5%)" stroke-width="1.5"></path><path d="M1461.22 81.82L1456.81 206.42" stroke="hsl(228.5, 77.2%, 51.5%)" stroke-width="1.5"></path><path d="M1461.22 81.82L1606.2 60.24" stroke="hsl(228.5, 77.2%, 51.5%)" stroke-width="1.5"></path><path d="M1456.81 206.42L1456.81 206.42" stroke="hsl(228.5, 77.2%, 51.5%)" stroke-width="1.5"></path><path d="M1456.81 206.42L1588.87 220.85" stroke="hsl(228.5, 77.2%, 51.5%)" stroke-width="1.5"></path><path d="M1433.72 374.39L1433.72 374.39" stroke="hsl(228.5, 77.2%, 51.5%)" stroke-width="1.5"></path><path d="M1433.72 374.39L1306.73 410.59" stroke="hsl(228.5, 77.2%, 51.5%)" stroke-width="1.5"></path><path d="M1433.72 374.39L1589.69 404.72" stroke="hsl(228.5, 77.2%, 51.5%)" stroke-width="1.5"></path><path d="M1406.28 540.06L1406.28 540.06" stroke="hsl(228.5, 77.2%, 51.5%)" stroke-width="1.5"></path><path d="M1406.28 540.06L1305.33 511.51" stroke="hsl(228.5, 77.2%, 51.5%)" stroke-width="1.5"></path><path d="M1406.28 540.06L1416.07 661.12" stroke="hsl(228.5, 77.2%, 51.5%)" stroke-width="1.5"></path><path d="M1406.28 540.06L1306.73 410.59" stroke="hsl(228.5, 77.2%, 51.5%)" stroke-width="1.5"></path><path d="M1406.28 540.06L1433.72 374.39" stroke="hsl(228.5, 77.2%, 51.5%)" stroke-width="1.5"></path><path d="M1406.28 540.06L1543.13 667.53" stroke="hsl(228.5, 77.2%, 51.5%)" stroke-width="1.5"></path><path d="M1406.28 540.06L1254.79 703.96" stroke="hsl(228.5, 77.2%, 51.5%)" stroke-width="1.5"></path><path d="M1416.07 661.12L1416.07 661.12" stroke="hsl(228.5, 77.2%, 51.5%)" stroke-width="1.5"></path><path d="M1612.38 -68.58L1612.38 -68.58" stroke="hsl(228.5, 77.2%, 51.5%)" stroke-width="1.5"></path><path d="M1612.38 -68.58L1606.2 60.24" stroke="hsl(228.5, 77.2%, 51.5%)" stroke-width="1.5"></path><path d="M1612.38 -68.58L1411.78 -41.93" stroke="hsl(228.5, 77.2%, 51.5%)" stroke-width="1.5"></path><path d="M1612.38 -68.58L1461.22 81.82" stroke="hsl(228.5, 77.2%, 51.5%)" stroke-width="1.5"></path><path d="M1606.2 60.24L1606.2 60.24" stroke="hsl(228.5, 77.2%, 51.5%)" stroke-width="1.5"></path><path d="M1606.2 60.24L1588.87 220.85" stroke="hsl(228.5, 77.2%, 51.5%)" stroke-width="1.5"></path><path d="M1606.2 60.24L1456.81 206.42" stroke="hsl(228.5, 77.2%, 51.5%)" stroke-width="1.5"></path><path d="M1588.87 220.85L1588.87 220.85" stroke="hsl(228.5, 77.2%, 51.5%)" stroke-width="1.5"></path><path d="M1588.87 220.85L1589.69 404.72" stroke="hsl(228.5, 77.2%, 51.5%)" stroke-width="1.5"></path><path d="M1588.87 220.85L1461.22 81.82" stroke="hsl(228.5, 77.2%, 51.5%)" stroke-width="1.5"></path><path d="M1588.87 220.85L1433.72 374.39" stroke="hsl(228.5, 77.2%, 51.5%)" stroke-width="1.5"></path><path d="M1588.87 220.85L1612.38 -68.58" stroke="hsl(228.5, 77.2%, 51.5%)" stroke-width="1.5"></path><path d="M1589.69 404.72L1589.69 404.72" stroke="hsl(228.5, 77.2%, 51.5%)" stroke-width="1.5"></path><path d="M1543.13 667.53L1543.13 667.53" stroke="hsl(228.5, 77.2%, 51.5%)" stroke-width="1.5"></path><path d="M1543.13 667.53L1416.07 661.12" stroke="hsl(228.5, 77.2%, 51.5%)" stroke-width="1.5"></path><path d="M1543.13 667.53L1589.69 404.72" stroke="hsl(228.5, 77.2%, 51.5%)" stroke-width="1.5"></path><path d="M1543.13 667.53L1305.33 511.51" stroke="hsl(228.5, 77.2%, 51.5%)" stroke-width="1.5"></path><circle r="25" cx="-69.22" cy="488.59" fill="url(&quot;#SvgjsRadialGradient1001&quot;)"></circle><circle r="25" cx="209.47" cy="493.12" fill="url(&quot;#SvgjsRadialGradient1001&quot;)"></circle><circle r="25" cx="1145.63" cy="511.88" fill="url(&quot;#SvgjsRadialGradient1001&quot;)"></circle><circle r="25" cx="1255.02" cy="256.43" fill="url(&quot;#SvgjsRadialGradient1001&quot;)"></circle><circle r="25" cx="1306.73" cy="410.59" fill="url(&quot;#SvgjsRadialGradient1001&quot;)"></circle><circle r="5" cx="-102.37" cy="644.09" fill="#8b9ad9"></circle><circle r="5" cx="93.12" cy="687.67" fill="#8b9ad9"></circle><circle r="5" cx="191.76" cy="691.37" fill="#8b9ad9"></circle><circle r="5" cx="354.18" cy="520.44" fill="#8b9ad9"></circle><circle r="5" cx="372.24" cy="689.07" fill="#8b9ad9"></circle><circle r="5" cx="502.65" cy="516.92" fill="#8b9ad9"></circle><circle r="5" cx="536.99" cy="652.56" fill="#8b9ad9"></circle><circle r="5" cx="644.71" cy="371.29" fill="#8b9ad9"></circle><circle r="5" cx="711.38" cy="514.27" fill="#8b9ad9"></circle><circle r="5" cx="666.57" cy="659.74" fill="#8b9ad9"></circle><circle r="5" cx="846.91" cy="405.52" fill="#8b9ad9"></circle><circle r="5" cx="858.83" cy="514.13" fill="#8b9ad9"></circle><circle r="5" cx="821.34" cy="652.7" fill="#8b9ad9"></circle><circle r="5" cx="949.72" cy="342.59" fill="#8b9ad9"></circle><circle r="5" cx="1004.41" cy="557.2" fill="#8b9ad9"></circle><circle r="5" cx="984.42" cy="690.2" fill="#8b9ad9"></circle><circle r="5" cx="1153.07" cy="77.33" fill="#8b9ad9"></circle><circle r="5" cx="1138.25" cy="254.97" fill="#8b9ad9"></circle><circle r="5" cx="1094.44" cy="350.94" fill="#8b9ad9"></circle><circle r="5" cx="1124.71" cy="691.43" fill="#8b9ad9"></circle><circle r="5" cx="1273.21" cy="-107.19" fill="#8b9ad9"></circle><circle r="5" cx="1244.26" cy="58.35" fill="#8b9ad9"></circle><circle r="5" cx="1305.33" cy="511.51" fill="#8b9ad9"></circle><circle r="5" cx="1254.79" cy="703.96" fill="#8b9ad9"></circle><circle r="5" cx="1411.78" cy="-41.93" fill="#8b9ad9"></circle><circle r="5" cx="1461.22" cy="81.82" fill="#8b9ad9"></circle><circle r="5" cx="1456.81" cy="206.42" fill="#8b9ad9"></circle><circle r="5" cx="1433.72" cy="374.39" fill="#8b9ad9"></circle><circle r="5" cx="1406.28" cy="540.06" fill="#8b9ad9"></circle><circle r="5" cx="1416.07" cy="661.12" fill="#8b9ad9"></circle><circle r="5" cx="1612.38" cy="-68.58" fill="#8b9ad9"></circle><circle r="5" cx="1606.2" cy="60.24" fill="#8b9ad9"></circle><circle r="5" cx="1588.87" cy="220.85" fill="#8b9ad9"></circle><circle r="5" cx="1589.69" cy="404.72" fill="#8b9ad9"></circle><circle r="5" cx="1543.13" cy="667.53" fill="#8b9ad9"></circle></g><defs><mask id="SvgjsMask1000"><rect width="1440" height="560" fill="#ffffff"></rect></mask><radialGradient id="SvgjsRadialGradient1001"><stop stop-color="#ffffff" offset="0.1"></stop><stop stop-color="#1735b3" offset="0.2"></stop><stop stop-color="rgba(23, 53, 179, 0)" offset="1"></stop></radialGradient></defs></svg>